<?xml version="1.0" encoding="utf-8"?>
<!-- Generator: Adobe Illustrator 19.0.0, SVG Export Plug-In . SVG Version: 6.00 Build 0)  -->
<svg version="1.1" id="Layer_1" xmlns="http://www.w3.org/2000/svg" xmlns:xlink="http://www.w3.org/1999/xlink" x="0px" y="0px"
	 viewBox="0 0 122.3 122.3" style="enable-background:new 0 0 122.3 122.3;" xml:space="preserve">
<style type="text/css">
	.st0{fill:#C1D3E3;}
	.st1{fill:#FFFFFF;}
	.st2{fill:#1F6FB4;}
	.st3{fill:#8ABE40;}
	.st4{fill:#A1A8B4;}
</style>
<circle id="XMLID_2_" class="st0" cx="61.2" cy="61.2" r="61.2"/>
<circle id="XMLID_3_" class="st1" cx="61.2" cy="61.2" r="47.3"/>
<path id="XMLID_14_" class="st2" d="M56.2,46.6l7.5-7.5c1.3-1.3,3.4-1.3,4.5,0c1.1,1.3,1.3,3.4,0,4.6l-7.5,7.5
	c-1.3,1.3-3.4,1.3-4.5,0C54.9,50,54.9,47.9,56.2,46.6z"/>
<path id="XMLID_12_" class="st2" d="M42.6,76.6l3.9-3.9c1.1-1.1,2.8-1.1,3.8,0l0.7,0.7c1.1,1.1,1.1,2.8,0,3.8l-3.9,3.9
	c-1.1,1.1-2.8,1.1-3.8,0l-0.7-0.7C41.7,79.5,41.7,77.6,42.6,76.6z"/>
<path id="XMLID_10_" class="st3" d="M37.4,65.5l8.7-8.9c1.3-1.3,3.4-1.3,4.5,0c1.3,1.3,1.3,3.4,0,4.6L41.9,70
	c-1.3,1.3-3.4,1.3-4.5,0C36.3,68.8,36.2,66.6,37.4,65.5z"/>
<path id="XMLID_8_" class="st3" d="M60.2,74.5l13.2-13.2c1.3-1.3,3.4-1.3,4.5,0c1.3,1.3,1.3,3.4,0,4.5L64.9,79.2
	c-1.3,1.3-3.4,1.3-4.5,0C59,77.9,59,75.8,60.2,74.5L60.2,74.5z"/>
<path id="XMLID_6_" class="st4" d="M53.2,66.1L76,43.3c1.3-1.3,3.4-1.3,4.5,0c1.3,1.3,1.3,3.4,0,4.6L57.9,70.6
	c-1.3,1.3-3.4,1.3-4.5,0C51.9,69.3,51.9,67.3,53.2,66.1L53.2,66.1z"/>
</svg>
