<svg id="Layer_1" xmlns="http://www.w3.org/2000/svg" viewBox="-197 381 215.1 31"><style>.st0{fill:#FFFFFF;} .st1{fill:#1C6EB4;} .st2{fill:#8ABD40;} .st3{fill:#CF2127;}</style><g id="XMLID_2_"><path id="XMLID_4_" class="st0" d="M-147.5 401.5c0-3.2 2.4-5.8 5.8-5.8 1.7 0 2.8.4 3.7 1.1.3.2.5.5.5 1 0 .7-.5 1.2-1.2 1.2-.3 0-.6-.1-.7-.2-.7-.5-1.4-.8-2.3-.8-1.9 0-3.2 1.6-3.2 3.5s1.3 3.5 3.2 3.5c1 0 1.7-.3 2.4-.9.2-.2.4-.3.7-.3.6 0 1.2.5 1.2 1.1 0 .4-.2.7-.4.9-1 .9-2.2 1.4-4 1.4-3.3.1-5.7-2.5-5.7-5.7z"/><path id="XMLID_16_" class="st0" d="M-133.5 401.5c0-3.2 2.5-5.8 6-5.8s5.9 2.6 5.9 5.8c0 3.2-2.5 5.8-6 5.8s-5.9-2.6-5.9-5.8zm9.3 0c0-2-1.4-3.6-3.4-3.6s-3.4 1.6-3.4 3.5 1.4 3.5 3.4 3.5c2 .1 3.4-1.5 3.4-3.4z"/><path id="XMLID_19_" class="st0" d="M-117 397.1c0-.7.5-1.2 1.2-1.2h3.1c3.5 0 6 2.4 6 5.6 0 3.2-2.4 5.6-6 5.6h-3.1c-.7 0-1.2-.5-1.2-1.2v-8.8zm4.4 7.7c2 0 3.4-1.4 3.4-3.3 0-2-1.4-3.4-3.4-3.4h-1.9v6.8h1.9v-.1z"/><path id="XMLID_22_" class="st0" d="M-102 405.8v-8.7c0-.7.5-1.2 1.2-1.2h6.2c.6 0 1.1.5 1.1 1.1s-.5 1.1-1.1 1.1h-5v2.3h4.3c.6 0 1.1.5 1.1 1.1s-.5 1.1-1.1 1.1h-4.3v2.4h5.1c.6 0 1.1.5 1.1 1.1s-.5 1.1-1.1 1.1h-6.3c-.6-.1-1.2-.7-1.2-1.4z"/><path id="XMLID_24_" class="st0" d="M-81.7 397c0-.7.5-1.2 1.2-1.2h.3c.5 0 .9.3 1.1.6l3 4.8 3-4.9c.3-.4.6-.6 1.1-.6h.3c.7 0 1.2.5 1.2 1.2v8.9c0 .7-.5 1.2-1.2 1.2s-1.2-.6-1.2-1.2v-5.6l-2.2 3.3c-.3.4-.6.6-1 .6s-.8-.2-1-.6l-2.1-3.3v5.8c0 .7-.5 1.2-1.2 1.2s-1.2-.5-1.2-1.2v-9h-.1z"/><path id="XMLID_26_" class="st0" d="M-62.5 402.7l-3.6-4.9c-.2-.2-.3-.5-.3-.9 0-.7.5-1.2 1.2-1.2.6 0 .9.3 1.2.8l2.7 3.9 2.8-4c.3-.4.7-.7 1.2-.7.8 0 1.2.5 1.2 1.2 0 .3-.2.6-.3.9l-3.6 4.9v3.2c0 .7-.5 1.2-1.2 1.2s-1.2-.5-1.2-1.2l-.1-3.2z"/><path id="XMLID_28_" class="st0" d="M-41.8 406.3l-3.6-8.7c-.1-.2-.1-.4-.1-.6 0-.7.5-1.2 1.2-1.2.6 0 1.1.4 1.2.9l2.8 7.3 2.8-7.3c.2-.4.6-.8 1.2-.8.7 0 1.2.5 1.2 1.2 0 .2-.1.4-.1.5l-3.7 8.8c-.3.6-.7 1-1.4 1h-.2c-.6-.2-1-.5-1.3-1.1z"/><path id="XMLID_44_" class="st0" d="M-30.8 397c0-.7.5-1.2 1.2-1.2s1.2.5 1.2 1.2v8.9c0 .7-.5 1.2-1.2 1.2s-1.2-.5-1.2-1.2V397z"/><path id="XMLID_52_" class="st0" d="M-23.1 405.8v-8.7c0-.7.5-1.2 1.2-1.2h6.2c.6 0 1.1.5 1.1 1.1s-.5 1.1-1.1 1.1h-5v2.3h4.3c.6 0 1.1.5 1.1 1.1s-.5 1.1-1.1 1.1h-4.3v2.4h5.1c.6 0 1.1.5 1.1 1.1s-.5 1.1-1.1 1.1h-6.3c-.6-.1-1.2-.7-1.2-1.4z"/><path id="XMLID_54_" class="st0" d="M-10.5 397.4c0-.1-.1-.3-.1-.5 0-.7.6-1.2 1.3-1.2.6 0 1 .4 1.2.9l2.2 6.9 2.2-6.8c.2-.6.6-1 1.2-1h.2c.6 0 1.1.4 1.2 1l2.2 6.8 2.2-6.9c.2-.5.6-.9 1.2-.9.7 0 1.2.5 1.2 1.2 0 .1 0 .3-.1.5l-3.1 8.8c-.2.6-.7 1-1.3 1H.9c-.6 0-1-.4-1.3-1l-2.2-6.4-2.2 6.4c-.2.6-.7 1-1.3 1h-.3c-.6 0-1.1-.4-1.3-1l-2.8-8.8z"/><path id="XMLID_56_" class="st0" d="M9.8 405.9c-.3-.2-.5-.5-.5-.9 0-.6.5-1.1 1.2-1.1.3 0 .5.1.7.2.8.6 1.8 1 2.9 1 1 0 1.6-.4 1.6-1.1 0-.6-.4-.9-2.3-1.4-2.3-.6-3.7-1.2-3.7-3.4 0-2 1.6-3.4 3.9-3.4 1.4 0 2.5.4 3.6 1 .3.2.5.5.5 1 0 .6-.5 1.1-1.2 1.1-.2 0-.4-.1-.6-.2-.8-.5-1.6-.8-2.4-.8-.9 0-1.4.4-1.4 1 0 .7.5 1 2.4 1.5 2.3.6 3.6 1.4 3.6 3.4 0 2.2-1.7 3.5-4.1 3.5-1.5-.1-3-.5-4.2-1.4z"/></g><path id="XMLID_14_" class="st1" d="M-183 386.9l5.3-5.3c.9-.9 2.4-.9 3.2 0s.9 2.4 0 3.3l-5.3 5.3c-.9.9-2.4.9-3.2 0-.9-.9-.9-2.4 0-3.3z"/><path id="XMLID_12_" class="st1" d="M-192.6 408.2l2.8-2.8c.8-.8 2-.8 2.7 0l.5.5c.8.8.8 2 0 2.7l-2.8 2.8c-.8.8-2 .8-2.7 0l-.5-.5c-.7-.7-.7-2 0-2.7z"/><path id="XMLID_10_" class="st2" d="M-196.3 400.3l6.2-6.3c.9-.9 2.4-.9 3.2 0 .9.9.9 2.4 0 3.3l-6.2 6.2c-.9.9-2.4.9-3.2 0s-.9-2.4 0-3.2z"/><path id="XMLID_8_" class="st2" d="M-180.1 406.7l9.4-9.4c.9-.9 2.4-.9 3.2 0 .9.9.9 2.4 0 3.2l-9.3 9.5c-.9.9-2.4.9-3.2 0-1-.9-1-2.4-.1-3.3z"/><path id="XMLID_6_" class="st3" d="M-185.1 400.7l16.2-16.2c.9-.9 2.4-.9 3.2 0 .9.9.9 2.4 0 3.3l-16.1 16.1c-.9.9-2.4.9-3.2 0-1-.9-1-2.3-.1-3.2z"/></svg>